<svg xmlns="http://www.w3.org/2000/svg" xmlns:v="https://svgstorm.com"
viewBox="190 175 120 120"
width="120"
height="120">
<g fill="None" fill-opacity="0.0" stroke="#000000" stroke-opacity="0.00" stroke-width="0.3"><path d="
M 0.00 500.00 
L 500.00 500.00
L 500.00 0.00
L 0.00 0.00
L 0.00 500.00
M 243.00 247.00 
C 240.65 247.38 238.17 247.14 236.00 247.00
C 228.48 247.31 205.06 247.84 204.23 234.77 C 203.40 221.70 199.17 199.31 209.75 190.75 C 220.34 182.20 240.60 184.28 255.00 186.00 C 269.40 187.72 269.74 206.82 266.01 219.01 C 262.28 231.20 260.28 246.14 243.00 247.00
M 290.00 205.00 
C 300.53 208.20 297.58 227.50 297.00 237.00 C 296.42 246.50 300.06 265.08 295.68 274.68 C 291.30 284.28 279.55 287.90 269.26 283.74 C 258.96 279.58 259.80 266.81 262.98 256.98 C 266.15 247.15 268.53 235.74 270.78 225.78 C 273.02 215.82 274.95 200.43 290.00 205.00
M 214.00 253.00 
C 222.54 250.75 240.21 250.96 248.25 256.75 C 256.28 262.55 251.27 281.01 241.30 283.30 C 231.34 285.60 216.36 287.43 208.25 279.75 C 200.14 272.07 203.45 255.78 214.00 253.00 Z"/>
</g>
<g fill="None" fill-opacity="0.0" stroke="#FC7832" stroke-opacity="0.96" stroke-width="0.3"><path d="
M 236.00 247.00 
C 238.33 246.90 240.67 247.12 243.00 247.00
C 260.28 246.14 262.28 231.20 266.01 219.01 C 269.74 206.82 269.40 187.72 255.00 186.00 C 240.60 184.28 220.34 182.20 209.75 190.75 C 199.17 199.31 203.40 221.70 204.23 234.77 C 205.06 247.84 228.48 247.31 236.00 247.00 Z"/>
</g>
<g fill="None" fill-opacity="0.0" stroke="#1D7CC3" stroke-opacity="0.95" stroke-width="0.3"><path d="
M 290.00 205.00 
C 274.95 200.43 273.02 215.82 270.78 225.78 C 268.53 235.74 266.15 247.15 262.98 256.98 C 259.80 266.81 258.96 279.58 269.26 283.74 C 279.55 287.90 291.30 284.28 295.68 274.68 C 300.06 265.08 296.42 246.50 297.00 237.00 C 297.58 227.50 300.53 208.20 290.00 205.00 Z"/>
</g>
<g fill="None" fill-opacity="0.0" stroke="#FEFF00" stroke-opacity="0.00" stroke-width="0.3"><path d="
M 243.00 247.00 
C 240.67 247.12 238.33 246.90 236.00 247.00
C 238.17 247.14 240.65 247.38 243.00 247.00 Z"/>
</g>
<g fill="None" fill-opacity="0.0" stroke="#17AC9C" stroke-opacity="0.93" stroke-width="0.3"><path d="
M 214.00 253.00 
C 203.45 255.78 200.14 272.07 208.25 279.75 C 216.36 287.43 231.34 285.60 241.30 283.30 C 251.27 281.01 256.28 262.55 248.25 256.75 C 240.21 250.96 222.54 250.75 214.00 253.00 Z"/>
</g>
<g fill="#000000" fill-opacity="0.00" stroke="None">
<path d="
M 0.00 500.00 
L 500.00 500.00
L 500.00 0.00
L 0.00 0.00
L 0.00 500.00
M 243.00 247.00 
C 240.65 247.38 238.17 247.14 236.00 247.00
C 228.48 247.31 205.06 247.84 204.23 234.77 C 203.40 221.70 199.17 199.31 209.75 190.75 C 220.34 182.20 240.60 184.28 255.00 186.00 C 269.40 187.72 269.74 206.82 266.01 219.01 C 262.28 231.20 260.28 246.14 243.00 247.00
M 290.00 205.00 
C 300.53 208.20 297.58 227.50 297.00 237.00 C 296.42 246.50 300.06 265.08 295.68 274.68 C 291.30 284.28 279.55 287.90 269.26 283.74 C 258.96 279.58 259.80 266.81 262.98 256.98 C 266.15 247.15 268.53 235.74 270.78 225.78 C 273.02 215.82 274.95 200.43 290.00 205.00
M 214.00 253.00 
C 222.54 250.75 240.21 250.96 248.25 256.75 C 256.28 262.55 251.27 281.01 241.30 283.30 C 231.34 285.60 216.36 287.43 208.25 279.75 C 200.14 272.07 203.45 255.78 214.00 253.00 Z"/>
</g>
<g fill="#FC7832" fill-opacity="0.96" stroke="None">
<path d="
M 236.00 247.00 
C 238.33 246.90 240.67 247.12 243.00 247.00
C 260.28 246.14 262.28 231.20 266.01 219.01 C 269.74 206.82 269.40 187.72 255.00 186.00 C 240.60 184.28 220.34 182.20 209.75 190.75 C 199.17 199.31 203.40 221.70 204.23 234.77 C 205.06 247.84 228.48 247.31 236.00 247.00 Z"/>
</g>
<g fill="#1D7CC3" fill-opacity="0.95" stroke="None">
<path d="
M 290.00 205.00 
C 274.95 200.43 273.02 215.82 270.78 225.78 C 268.53 235.74 266.15 247.15 262.98 256.98 C 259.80 266.81 258.96 279.58 269.26 283.74 C 279.55 287.90 291.30 284.28 295.68 274.68 C 300.06 265.08 296.42 246.50 297.00 237.00 C 297.58 227.50 300.53 208.20 290.00 205.00 Z"/>
</g>
<g fill="#FEFF00" fill-opacity="0.00" stroke="None">
<path d="
M 243.00 247.00 
C 240.67 247.12 238.33 246.90 236.00 247.00
C 238.17 247.14 240.65 247.38 243.00 247.00 Z"/>
</g>
<g fill="#17AC9C" fill-opacity="0.93" stroke="None">
<path d="
M 214.00 253.00 
C 203.45 255.78 200.14 272.07 208.25 279.75 C 216.36 287.43 231.34 285.60 241.30 283.30 C 251.27 281.01 256.28 262.55 248.25 256.75 C 240.21 250.96 222.54 250.75 214.00 253.00 Z"/>
</g>
</svg>